<svg xmlns="http://www.w3.org/2000/svg" xmlns:xlink="http://www.w3.org/1999/xlink" version="1.1" width="1000" height="1000" viewBox="0 0 1000 1000" xml:space="preserve">
<desc>Created with Fabric.js 3.5.0</desc>
<defs>
</defs>
<rect x="0" y="0" width="100%" height="100%" fill="#ffffff"/>
<g transform="matrix(3.9063 0 0 3.9063 500.0064 500.0064)" id="176888">
<g style="" vector-effect="non-scaling-stroke">
		<g transform="matrix(0.5 0 0 0.5 0 0)" id="SVGRepo_iconCarrier">
<rect style="stroke: none; stroke-width: 1; stroke-dasharray: none; stroke-linecap: butt; stroke-dashoffset: 0; stroke-linejoin: miter; stroke-miterlimit: 4; is-custom-font: none; font-file-url: none; fill: rgb(0,208,175); fill-rule: nonzero; opacity: 1;" x="-256" y="-256" rx="15" ry="15" width="512" height="512"/>
</g>
		<g transform="matrix(0.5 0 0 0.5 -24.75 13.5503)" id="SVGRepo_iconCarrier">
<path style="stroke: none; stroke-width: 1; stroke-dasharray: none; stroke-linecap: butt; stroke-dashoffset: 0; stroke-linejoin: miter; stroke-miterlimit: 4; is-custom-font: none; font-file-url: none; fill: rgb(254,255,255); fill-rule: nonzero; opacity: 1;" transform=" translate(-206.5, -283.1005)" d="m 271 383 c -15 -4 -23 -10 -36 -26 c -9 -12 -26 -39 -35 -53 l -6 -11 h -24 l 0 34 c 1 43 0 42 19 45 l 10 1 l 0 4 l 0 4 h -80 l 0 -4 c 0 -4 1 -4 9 -6 c 10 -2 14 -5 15 -14 c 1 -4 1 -31 1 -79 c 0 -70 -1 -72 -3 -77 c -3 -5 -7 -7 -18 -8 c -4 -1 -5 -1 -5 -5 v -4 l 43 -1 c 55 -1 65 0 81 11 c 15 10 22 24 20 43 c -1 21 -17 42 -37 50 c -4 1 -7 3 -7 3 c 0 2 17 28 28 43 c 15 21 27 32 36 37 c 4 2 9 3 10 3 c 3 0 3 1 3 4 c 0 3 -1 5 -2 5 c -5 2 -19 2 -26 0 z m -57 -109 c 14 -7 22 -18 23 -35 c 1 -13 -2 -22 -10 -30 c -9 -10 -25 -14 -48 -12 l -10 1 v 39 c 0 36 0 40 2 40 c 1 0 9 1 18 0 c 14 0 17 -1 24 -4 z" stroke-linecap="round"/>
</g>
		<g transform="matrix(0.5 0 0 0.5 35.6828 -41.2974)" id="SVGRepo_iconCarrier">
<path style="stroke: none; stroke-width: 1; stroke-dasharray: none; stroke-linecap: butt; stroke-dashoffset: 0; stroke-linejoin: miter; stroke-miterlimit: 4; is-custom-font: none; font-file-url: none; fill: rgb(254,255,255); fill-rule: nonzero; opacity: 1;" transform=" translate(-327.3655, -173.4052)" d="m 321 228 c -25 -4 -34 -20 -32 -61 c 1 -21 3 -30 11 -38 c 7 -7 13 -9 25 -10 c 13 -1 21 2 29 8 c 5 4 9 10 9 13 c 0 1 -3 2 -6 4 l -6 3 l -3 -3 c -5 -6 -9 -9 -14 -11 c -10 -3 -20 2 -25 11 c -3 5 -3 6 -3 29 c 0 22 0 25 3 29 c 4 7 12 11 21 10 c 13 -1 20 -10 20 -24 v -7 l -10 0 l -10 0 v -13 h 36 l 0 15 c 0 12 -1 16 -3 22 c -6 15 -23 24 -42 22 z" stroke-linecap="round"/>
</g>
</g>
</g>
</svg>