<svg xmlns="http://www.w3.org/2000/svg" xmlns:xlink="http://www.w3.org/1999/xlink" version="1.1" width="1000" height="1000" viewBox="0 0 1000 1000" xml:space="preserve">
<desc>Created with Fabric.js 3.5.0</desc>
<defs>
</defs>
<rect x="0" y="0" width="100%" height="100%" fill="#ffffff"/>
<g transform="matrix(3.9063 0 0 3.9063 500.0064 500.0064)" id="788325">
<g style="" vector-effect="non-scaling-stroke">
		<g transform="matrix(3.5068 0 0 3.5068 -0.0018 -0.0018)" id="mask">
<rect style="stroke: rgb(0,0,0); stroke-width: 2; stroke-dasharray: none; stroke-linecap: butt; stroke-dashoffset: 0; stroke-linejoin: miter; stroke-miterlimit: 4; is-custom-font: none; font-file-url: none; fill: rgb(0,0,0); fill-rule: nonzero; opacity: 1;" x="-35.5" y="-35.5" rx="14" ry="14" width="71" height="71"/>
</g>
		<g transform="matrix(3.5068 0 0 3.5068 1.6179 -0.6949)" id="Shape">
<path style="stroke: none; stroke-width: 1; stroke-dasharray: none; stroke-linecap: butt; stroke-dashoffset: 0; stroke-linejoin: miter; stroke-miterlimit: 4; is-custom-font: none; font-file-url: none; fill: rgb(255,255,255); fill-rule: nonzero; opacity: 1;" transform=" translate(-34.9617, -34.3022)" d="M 58.3067362 21.4281798 C 55.895743 17.2972267 52.6253846 14.0267453 48.4948004 11.615998 C 44.3636013 9.20512774 39.8535636 8 34.9614901 8 C 30.0700314 8 25.5585181 9.20549662 21.4281798 11.615998 C 17.2972267 14.0266224 14.0269912 17.2972267 11.615998 21.4281798 C 9.20537366 25.5590099 8 30.0699084 8 34.9607523 C 8 40.8357654 9.71405782 46.1187277 13.1430342 50.8109917 C 16.5716416 55.5036246 21.0008949 58.7507436 26.4304251 60.5527176 C 27.0624378 60.6700211 27.5302994 60.5875152 27.8345016 60.3072901 C 28.1388268 60.0266961 28.290805 59.6752774 28.290805 59.2545094 C 28.290805 59.1842994 28.2847799 58.5526556 28.2730988 57.3588401 C 28.2610487 56.1650247 28.2553926 55.1235563 28.2553926 54.2349267 L 27.4479164 54.3746089 C 26.9330843 54.468919 26.2836113 54.5088809 25.4994975 54.4975686 C 24.7157525 54.4866252 23.9021284 54.4044881 23.0597317 54.2517722 C 22.2169661 54.1004088 21.4330982 53.749359 20.7075131 53.1993604 C 19.982297 52.6493618 19.4674649 51.9294329 19.1631397 51.0406804 L 18.8120898 50.2328353 C 18.5780976 49.6950097 18.2097104 49.0975487 17.7064365 48.4426655 C 17.2031625 47.7871675 16.6942324 47.3427912 16.1794003 47.108799 L 15.9336039 46.9328437 C 15.7698216 46.815909 15.6178435 46.6748743 15.4773006 46.511215 C 15.3368806 46.3475556 15.2317501 46.1837734 15.1615401 46.0197452 C 15.0912072 45.855594 15.1494901 45.7209532 15.3370036 45.6153308 C 15.5245171 45.5097084 15.8633939 45.4584343 16.3551097 45.4584343 L 17.0569635 45.5633189 C 17.5250709 45.6571371 18.104088 45.9373622 18.7947525 46.4057156 C 19.4850481 46.8737001 20.052507 47.4821045 20.4972521 48.230683 C 21.0358155 49.1905062 21.6846737 49.9218703 22.4456711 50.4251443 C 23.2060537 50.9284182 23.9727072 51.1796248 24.744894 51.1796248 C 25.5170807 51.1796248 26.1840139 51.121096 26.7459396 51.0046532 C 27.3072505 50.8875956 27.8338868 50.7116403 28.3256025 50.477771 C 28.5362325 48.9090515 29.1097164 47.7039238 30.0455624 46.8615271 C 28.7116959 46.721353 27.5124702 46.5102313 26.4472706 46.2295144 C 25.3826858 45.9484285 24.2825656 45.4922482 23.1476478 44.8597436 C 22.0121153 44.2280998 21.0701212 43.44374 20.3214198 42.5080169 C 19.5725954 41.571802 18.9580429 40.3426971 18.4786232 38.821809 C 17.9989575 37.300306 17.7590632 35.5451796 17.7590632 33.5559381 C 17.7590632 30.7235621 18.6837199 28.3133066 20.5326645 26.3238191 C 19.6665366 24.1944035 19.7483048 21.8072644 20.778215 19.1626478 C 21.4569523 18.951772 22.4635002 19.1100211 23.7973667 19.6364115 C 25.1314792 20.1630477 26.1082708 20.6141868 26.7287253 20.9882301 C 27.3491798 21.3621504 27.8463057 21.6790175 28.2208409 21.9360032 C 30.3978419 21.3277217 32.644438 21.0235195 34.9612442 21.0235195 C 37.2780503 21.0235195 39.5251383 21.3277217 41.7022622 21.9360032 L 43.0362517 21.0938524 C 43.9484895 20.5319267 45.0257392 20.0169716 46.2654186 19.5488642 C 47.5058357 19.0810026 48.4543466 18.9521409 49.1099676 19.1630167 C 50.1627483 21.8077563 50.2565666 24.1947724 49.3901927 26.324188 C 51.2390143 28.3136755 52.1640399 30.7245457 52.1640399 33.556307 C 52.1640399 35.5455485 51.9232849 37.3062081 51.444357 38.8393922 C 50.9648143 40.3728223 50.3449746 41.6006975 49.5845919 42.5256002 C 48.8233486 43.4503799 47.8753296 44.2285916 46.7404118 44.8601125 C 45.6052481 45.4921252 44.504759 45.9483056 43.4401742 46.2293914 C 42.3750975 46.5104772 41.1758719 46.7217219 39.8420054 46.8621419 C 41.0585683 47.9149226 41.6669728 49.5767225 41.6669728 51.846804 L 41.6669728 59.2535257 C 41.6669728 59.6742937 41.8132948 60.0255895 42.1061847 60.3063064 C 42.3987058 60.5865315 42.8606653 60.6690374 43.492678 60.5516109 C 48.922946 58.7498829 53.3521992 55.5026409 56.7806837 50.810008 C 60.2087994 46.117744 61.923472 40.8347817 61.923472 34.9597686 C 61.9222424 30.0695396 60.7162539 25.5590099 58.3067362 21.4281798 Z" stroke-linecap="round"/>
</g>
</g>
</g>
</svg>